<svg id="Capa_1" enable-background="new 0 0 511.983 511.983" viewBox="0 0 511.983 511.983" xmlns="http://www.w3.org/2000/svg"><path d="m500.15 275.759c-3.094-4.719-8.253-7.666-13.798-7.885-41.608-1.652-96.066-26.406-143.85-50.403-3.701-1.861-8.208-.365-10.068 3.336-1.859 3.702-.365 8.21 3.336 10.068 15.947 8.009 32.107 15.853 48.135 22.928-23.664 3.653-49.2-6.291-51.026-7.022-6.525-2.998-12.966-5.98-19.292-8.911-48.62-22.517-90.61-41.964-114.45-41.964-28.813 0-49.338 12.121-69.188 23.843-18 10.629-35.002 20.669-57.22 20.669-24.18 0-40.525-9.738-50.315-18.458 2.492-8.871 5.712-18.221 9.833-28.015.563-1.337 1.526-1.629 1.914-1.692.689-.114 1.31.137 1.843.742.968 1.099 1.923 2.229 2.888 3.369 8.787 10.389 19.722 23.317 47.167 23.317 23.883 0 43.841-11.55 63.142-22.72 19.364-11.207 37.654-21.792 59.758-21.792 18.164 0 56.206 19.547 96.481 40.242 3.683 1.894 8.205.44 10.099-3.243 1.893-3.685.441-8.205-3.243-10.099-10.515-5.403-20.68-10.625-30.366-15.446 1.627-16.452-9.253-33.478-27.449-41.902-13.278-6.148-27.572-6.199-38.746-1.278-21.177-13.321-50.728-16.44-71.735-7.236-10.496 4.599-26.252 17.945-16.772 55.924-13.31 7.111-26.569 12.55-41.168 12.55-20.486 0-27.543-8.344-35.714-18.005-1.031-1.219-2.052-2.425-3.087-3.6-3.938-4.469-9.741-6.571-15.517-5.628-5.936.971-10.915 4.963-13.319 10.68-26.548 63.107-18.316 110.1-12.358 130.001-3.562 2.248-5.94 6.208-5.94 10.723v27.863c0 4.538 2.448 8.758 6.392 11.013l11.567 6.609c7.682 4.39 16.417 6.71 25.263 6.71h49.575c4.142 0 7.5-3.357 7.5-7.5s-3.358-7.5-7.5-7.5h-49.579c-6.24 0-12.402-1.637-17.821-4.733l-10.401-5.943v-24.202h1.657c13.121 0 26.078-4.402 36.484-12.396 7.793-5.988 17.523-9.288 27.396-9.291h.418c107.553 0 150.657 14.722 182.13 25.473 19.203 6.561 35.786 12.226 59.942 12.226 16.358 0 32.693-.158 48.551-.469 4.141-.082 7.433-3.505 7.351-7.646-.081-4.141-3.504-7.404-7.646-7.352-15.76.31-31.996.467-48.256.467-21.665 0-36.416-5.039-55.093-11.42-32.47-11.092-76.923-26.278-186.979-26.278-.141 0-.282 0-.424 0-13.159.005-26.132 4.407-36.53 12.396-6.657 5.113-14.707 8.258-23.037 9.072-2.82-8.625-6.757-24.972-6.057-47.516 17.197 9.859 36.549 14.867 57.699 14.867 32.964 0 56.527-13.901 77.375-26.201 17.311-10.226 30.984-18.303 49.033-18.303 15.144 0 60.881 21.173 97.631 38.185l5.403 2.502c4.74 2.195 9.532 4.415 14.408 6.653l.419.19c.068.031.138.062.207.09l.459.192c4.396 1.816 27.72 10.88 55.192 10.88 18.113 0 34.27-3.995 48.023-11.873l19.014-10.895c16.03 4.61 31.457 7.569 45.866 8.141.725.028 1.399.438 1.848 1.122 6.484 9.889 15.364 28.229 3.504 41.636-18.056 1.674-46.575 3.79-85.86 5.172-4.14.146-7.377 3.619-7.231 7.759s3.627 7.421 7.759 7.231c42.814-1.505 73.028-3.883 90.933-5.626-.137 3.111-2.019 5.844-4.871 7.025-22.021 9.12-66.999 18.866-127.194 18.866h-237.728c-4.142 0-7.5 3.357-7.5 7.5s3.358 7.5 7.5 7.5h237.728c62.395 0 109.581-10.336 132.935-20.009 8.589-3.558 14.139-11.898 14.139-21.249 0-4.055-1.698-7.939-4.653-10.705 11.766-20.265-.449-43.464-6.916-53.326zm-251.973-117.427c9.765 4.521 16.611 12.607 18.42 20.829-20.009-9.47-37.321-16.395-50.476-18.393 7.1-6.696 20.049-7.996 32.056-2.436zm-98.16-8.386c14.894-6.526 36.174-4.923 52.669 3.344-1.554 1.94-2.887 4.076-3.962 6.397-.181.39-.327.781-.489 1.172-21.274 2.713-39.168 13.059-56.55 23.118-.279.162-.558.323-.836.484-2.935-14.093-2.781-29.279 9.168-34.515zm263.404 122.655c-11.454 6.562-25.102 9.889-40.566 9.889-25.16 0-47.05-8.746-49.434-9.73l-.613-.268c-4.831-2.218-9.609-4.431-14.333-6.619l-5.406-2.503c-50.054-23.171-86.809-39.572-103.933-39.572-22.147 0-38.913 9.903-56.713 20.418-19.136 11.29-40.826 24.086-69.694 24.086-21.039 0-39.984-5.627-56.368-16.699.543-4.325 1.261-8.82 2.181-13.477 12.053 8.931 29.837 17.293 54.187 17.293 26.316 0 45.904-11.567 64.847-22.753 18.949-11.189 36.846-21.759 61.561-21.759 20.535 0 63.091 19.709 108.146 40.575 6.389 2.959 12.895 5.973 19.487 9.001.084.038.168.075.254.11 1.269.527 22.103 9.018 45.775 9.018 10.771 0 22.13-1.769 32.499-6.837 5.127 2.027 10.222 3.941 15.276 5.729z"></path><path d="m164.905 338.33c0-4.143-3.358-7.5-7.5-7.5h-83.415c-4.142 0-7.5 3.357-7.5 7.5s3.358 7.5 7.5 7.5h83.416c4.141 0 7.499-3.357 7.499-7.5z"></path></svg>